<mxfile host="app.diagrams.net" agent="Mozilla/5.0 (Windows NT 10.0; Win64; x64) AppleWebKit/537.36 (KHTML, like Gecko) Chrome/135.0.0.0 Safari/537.36" version="26.2.14">
  <diagram name="Page-1" id="dVzb3QCAWDJDlyktZCMi">
    <mxGraphModel dx="647" dy="508" grid="1" gridSize="10" guides="1" tooltips="1" connect="1" arrows="1" fold="1" page="1" pageScale="1" pageWidth="827" pageHeight="1169" background="none" math="1" shadow="0">
      <root>
        <mxCell id="0" />
        <mxCell id="1" parent="0" />
        <mxCell id="D4Swq6HpyOlGJ2e64USP-1" value="&lt;font style=&quot;font-size: 26px;&quot;&gt;Agrégation de rangs grâce à la géométrie dans l&#39;espace&lt;/font&gt;" style="text;html=1;align=center;verticalAlign=middle;whiteSpace=wrap;rounded=1;fontStyle=4" parent="1" vertex="1">
          <mxGeometry x="80" y="20" width="680" height="30" as="geometry" />
        </mxCell>
        <mxCell id="D4Swq6HpyOlGJ2e64USP-2" value="" style="endArrow=none;html=1;rounded=1;strokeWidth=2;" parent="1" edge="1">
          <mxGeometry width="50" height="50" relative="1" as="geometry">
            <mxPoint x="1" y="80" as="sourcePoint" />
            <mxPoint x="821" y="80" as="targetPoint" />
          </mxGeometry>
        </mxCell>
        <mxCell id="D4Swq6HpyOlGJ2e64USP-3" value="&lt;font style=&quot;font-size: 20px;&quot;&gt;&lt;u&gt;Figure&lt;/u&gt;&lt;/font&gt;" style="text;html=1;align=left;verticalAlign=middle;whiteSpace=wrap;rounded=1;" parent="1" vertex="1">
          <mxGeometry x="20" y="90" width="70" height="30" as="geometry" />
        </mxCell>
        <mxCell id="D4Swq6HpyOlGJ2e64USP-69" value="" style="group" parent="1" vertex="1" connectable="0">
          <mxGeometry x="40" y="137" width="330" height="300" as="geometry" />
        </mxCell>
        <mxCell id="D4Swq6HpyOlGJ2e64USP-5" value="" style="endArrow=none;html=1;rounded=0;" parent="D4Swq6HpyOlGJ2e64USP-69" source="D4Swq6HpyOlGJ2e64USP-39" edge="1">
          <mxGeometry width="50" height="50" relative="1" as="geometry">
            <mxPoint x="100.83333333333334" y="194.11764705882354" as="sourcePoint" />
            <mxPoint x="284.16666666666674" y="264.70588235294116" as="targetPoint" />
          </mxGeometry>
        </mxCell>
        <mxCell id="D4Swq6HpyOlGJ2e64USP-6" value="" style="endArrow=none;html=1;rounded=0;" parent="D4Swq6HpyOlGJ2e64USP-69" edge="1">
          <mxGeometry width="50" height="50" relative="1" as="geometry">
            <mxPoint x="100.83333333333334" y="194.11764705882354" as="sourcePoint" />
            <mxPoint x="247.5" y="123.5294117647059" as="targetPoint" />
          </mxGeometry>
        </mxCell>
        <mxCell id="D4Swq6HpyOlGJ2e64USP-7" value="" style="endArrow=none;html=1;rounded=0;" parent="D4Swq6HpyOlGJ2e64USP-69" edge="1">
          <mxGeometry width="50" height="50" relative="1" as="geometry">
            <mxPoint x="100.83333333333334" y="194.11764705882354" as="sourcePoint" />
            <mxPoint x="100.83333333333334" y="17.647058823529413" as="targetPoint" />
          </mxGeometry>
        </mxCell>
        <mxCell id="D4Swq6HpyOlGJ2e64USP-10" value="" style="endArrow=none;html=1;rounded=0;fillColor=#0050ef;strokeColor=#001DBC;strokeWidth=2;" parent="D4Swq6HpyOlGJ2e64USP-69" edge="1">
          <mxGeometry width="50" height="50" relative="1" as="geometry">
            <mxPoint x="100.83333333333334" y="17.647058823529413" as="sourcePoint" />
            <mxPoint x="247.5" y="123.5294117647059" as="targetPoint" />
          </mxGeometry>
        </mxCell>
        <mxCell id="D4Swq6HpyOlGJ2e64USP-11" value="" style="endArrow=none;html=1;rounded=0;fillColor=#0050ef;strokeColor=#001DBC;strokeWidth=2;" parent="D4Swq6HpyOlGJ2e64USP-69" edge="1">
          <mxGeometry width="50" height="50" relative="1" as="geometry">
            <mxPoint x="284.16666666666674" y="264.70588235294116" as="sourcePoint" />
            <mxPoint x="247.5" y="123.5294117647059" as="targetPoint" />
          </mxGeometry>
        </mxCell>
        <mxCell id="D4Swq6HpyOlGJ2e64USP-33" style="edgeStyle=orthogonalEdgeStyle;rounded=0;orthogonalLoop=1;jettySize=auto;html=1;exitX=0.5;exitY=1;exitDx=0;exitDy=0;strokeColor=light-dark(#001DBC,#B2CBFF);" parent="D4Swq6HpyOlGJ2e64USP-69" source="D4Swq6HpyOlGJ2e64USP-13" edge="1">
          <mxGeometry relative="1" as="geometry">
            <mxPoint x="160.78333333333333" y="61.76470588235295" as="targetPoint" />
          </mxGeometry>
        </mxCell>
        <mxCell id="D4Swq6HpyOlGJ2e64USP-13" value="Plan des &quot;pires&quot;" style="text;html=1;align=center;verticalAlign=middle;whiteSpace=wrap;rounded=0;fontColor=light-dark(#001DBC,#B2CBFF);" parent="D4Swq6HpyOlGJ2e64USP-69" vertex="1">
          <mxGeometry x="165.00000000000003" width="64.16666666666669" height="26.47058823529412" as="geometry" />
        </mxCell>
        <mxCell id="D4Swq6HpyOlGJ2e64USP-18" style="edgeStyle=orthogonalEdgeStyle;rounded=0;orthogonalLoop=1;jettySize=auto;html=1;exitX=0.5;exitY=0;exitDx=0;exitDy=0;" parent="D4Swq6HpyOlGJ2e64USP-69" source="D4Swq6HpyOlGJ2e64USP-14" edge="1">
          <mxGeometry relative="1" as="geometry">
            <mxPoint x="238.51666666666677" y="247.0588235294118" as="targetPoint" />
          </mxGeometry>
        </mxCell>
        <mxCell id="D4Swq6HpyOlGJ2e64USP-14" value="Classement A" style="text;html=1;align=center;verticalAlign=middle;whiteSpace=wrap;rounded=0;" parent="D4Swq6HpyOlGJ2e64USP-69" vertex="1">
          <mxGeometry x="201.66666666666669" y="273.5294117647059" width="73.33333333333334" height="26.47058823529412" as="geometry" />
        </mxCell>
        <mxCell id="D4Swq6HpyOlGJ2e64USP-17" style="edgeStyle=orthogonalEdgeStyle;rounded=0;orthogonalLoop=1;jettySize=auto;html=1;exitX=0;exitY=0.5;exitDx=0;exitDy=0;" parent="D4Swq6HpyOlGJ2e64USP-69" source="D4Swq6HpyOlGJ2e64USP-16" edge="1">
          <mxGeometry relative="1" as="geometry">
            <mxPoint x="210.83333333333337" y="141.1764705882353" as="targetPoint" />
          </mxGeometry>
        </mxCell>
        <mxCell id="D4Swq6HpyOlGJ2e64USP-16" value="Classement B" style="text;html=1;align=center;verticalAlign=middle;whiteSpace=wrap;rounded=0;" parent="D4Swq6HpyOlGJ2e64USP-69" vertex="1">
          <mxGeometry x="247.5" y="70.58823529411765" width="73.33333333333334" height="26.47058823529412" as="geometry" />
        </mxCell>
        <mxCell id="D4Swq6HpyOlGJ2e64USP-32" style="edgeStyle=orthogonalEdgeStyle;rounded=0;orthogonalLoop=1;jettySize=auto;html=1;exitX=1;exitY=0.5;exitDx=0;exitDy=0;" parent="D4Swq6HpyOlGJ2e64USP-69" source="D4Swq6HpyOlGJ2e64USP-27" edge="1">
          <mxGeometry relative="1" as="geometry">
            <mxPoint x="100.83333333333334" y="66.17647058823529" as="targetPoint" />
          </mxGeometry>
        </mxCell>
        <mxCell id="D4Swq6HpyOlGJ2e64USP-27" value="Classement C" style="text;html=1;align=center;verticalAlign=middle;whiteSpace=wrap;rounded=0;" parent="D4Swq6HpyOlGJ2e64USP-69" vertex="1">
          <mxGeometry y="52.94117647058824" width="73.33333333333334" height="26.47058823529412" as="geometry" />
        </mxCell>
        <mxCell id="D4Swq6HpyOlGJ2e64USP-38" value="" style="endArrow=none;html=1;rounded=0;" parent="D4Swq6HpyOlGJ2e64USP-69" source="D4Swq6HpyOlGJ2e64USP-8" target="D4Swq6HpyOlGJ2e64USP-39" edge="1">
          <mxGeometry width="50" height="50" relative="1" as="geometry">
            <mxPoint x="105.41666666666669" y="195.88235294117646" as="sourcePoint" />
            <mxPoint x="284.16666666666674" y="264.70588235294116" as="targetPoint" />
          </mxGeometry>
        </mxCell>
        <mxCell id="D4Swq6HpyOlGJ2e64USP-39" value="" style="shape=ellipse;fillColor=light-dark(#FF0B2A,#FF2871);strokeColor=none;html=1;sketch=0;fontColor=#ffffff;" parent="D4Swq6HpyOlGJ2e64USP-69" vertex="1">
          <mxGeometry x="187.9166666666667" y="225" width="9.166666666666668" height="8.823529411764707" as="geometry" />
        </mxCell>
        <mxCell id="D4Swq6HpyOlGJ2e64USP-40" value="`A`" style="text;html=1;align=center;verticalAlign=middle;resizable=0;points=[];autosize=1;strokeColor=none;fillColor=none;" parent="D4Swq6HpyOlGJ2e64USP-69" vertex="1">
          <mxGeometry x="207.49666666666673" y="207.3529411764706" width="40" height="30" as="geometry" />
        </mxCell>
        <mxCell id="D4Swq6HpyOlGJ2e64USP-41" value="" style="shape=ellipse;fillColor=light-dark(#FF0B2A,#FF2871);strokeColor=none;html=1;sketch=0;fontColor=#ffffff;" parent="D4Swq6HpyOlGJ2e64USP-69" vertex="1">
          <mxGeometry x="224.58333333333337" y="127.94117647058825" width="9.166666666666668" height="8.823529411764707" as="geometry" />
        </mxCell>
        <mxCell id="D4Swq6HpyOlGJ2e64USP-44" value="" style="shape=ellipse;fillColor=light-dark(#FF0B2A,#FF2871);strokeColor=none;html=1;sketch=0;fontColor=#ffffff;" parent="D4Swq6HpyOlGJ2e64USP-69" vertex="1">
          <mxGeometry x="96.25000000000001" y="105.88235294117648" width="9.166666666666668" height="8.823529411764707" as="geometry" />
        </mxCell>
        <mxCell id="D4Swq6HpyOlGJ2e64USP-45" value="`B`" style="text;html=1;align=center;verticalAlign=middle;resizable=0;points=[];autosize=1;strokeColor=none;fillColor=none;" parent="D4Swq6HpyOlGJ2e64USP-69" vertex="1">
          <mxGeometry x="225.83000000000004" y="139.41117647058826" width="40" height="30" as="geometry" />
        </mxCell>
        <mxCell id="D4Swq6HpyOlGJ2e64USP-47" value="`C`" style="text;html=1;align=center;verticalAlign=middle;resizable=0;points=[];autosize=1;strokeColor=none;fillColor=none;" parent="D4Swq6HpyOlGJ2e64USP-69" vertex="1">
          <mxGeometry x="52.58666666666669" y="104.12058823529414" width="40" height="30" as="geometry" />
        </mxCell>
        <mxCell id="D4Swq6HpyOlGJ2e64USP-48" value="" style="endArrow=none;html=1;rounded=0;strokeColor=light-dark(#FF0B2A,#FF2871);strokeWidth=2;" parent="D4Swq6HpyOlGJ2e64USP-69" edge="1">
          <mxGeometry width="50" height="50" relative="1" as="geometry">
            <mxPoint x="100.83333333333334" y="111.17647058823529" as="sourcePoint" />
            <mxPoint x="229.16666666666666" y="132.35294117647058" as="targetPoint" />
          </mxGeometry>
        </mxCell>
        <mxCell id="D4Swq6HpyOlGJ2e64USP-49" value="" style="endArrow=none;html=1;rounded=0;strokeColor=light-dark(#FF0B2A,#FF2871);strokeWidth=2;" parent="D4Swq6HpyOlGJ2e64USP-69" edge="1">
          <mxGeometry width="50" height="50" relative="1" as="geometry">
            <mxPoint x="192.50000000000003" y="229.41176470588238" as="sourcePoint" />
            <mxPoint x="229.16666666666666" y="132.35294117647058" as="targetPoint" />
          </mxGeometry>
        </mxCell>
        <mxCell id="D4Swq6HpyOlGJ2e64USP-62" style="edgeStyle=orthogonalEdgeStyle;rounded=0;orthogonalLoop=1;jettySize=auto;html=1;exitX=1;exitY=0.5;exitDx=0;exitDy=0;strokeColor=light-dark(#FF0B2A,#FF2871);" parent="D4Swq6HpyOlGJ2e64USP-69" source="D4Swq6HpyOlGJ2e64USP-53" edge="1">
          <mxGeometry relative="1" as="geometry">
            <mxPoint x="174.16666666666669" y="202.94117647058826" as="targetPoint" />
          </mxGeometry>
        </mxCell>
        <mxCell id="D4Swq6HpyOlGJ2e64USP-53" value="Plan `T`&amp;nbsp;" style="text;html=1;align=center;verticalAlign=middle;whiteSpace=wrap;rounded=0;fontColor=light-dark(#FF0B2A,#FF2871);" parent="D4Swq6HpyOlGJ2e64USP-69" vertex="1">
          <mxGeometry x="55.00000000000001" y="233.8235294117647" width="55.00000000000001" height="26.47058823529412" as="geometry" />
        </mxCell>
        <mxCell id="D4Swq6HpyOlGJ2e64USP-57" style="edgeStyle=orthogonalEdgeStyle;rounded=0;orthogonalLoop=1;jettySize=auto;html=1;strokeColor=light-dark(#168D00,#168D00);" parent="D4Swq6HpyOlGJ2e64USP-69" source="D4Swq6HpyOlGJ2e64USP-56" edge="1">
          <mxGeometry relative="1" as="geometry">
            <mxPoint x="266" y="27" as="targetPoint" />
            <Array as="points">
              <mxPoint x="301" y="27" />
            </Array>
          </mxGeometry>
        </mxCell>
        <mxCell id="D4Swq6HpyOlGJ2e64USP-56" value="Droite `d`" style="text;html=1;align=center;verticalAlign=middle;resizable=0;points=[];autosize=1;strokeColor=none;fillColor=none;fontColor=light-dark(#168D00,#168D00);" parent="D4Swq6HpyOlGJ2e64USP-69" vertex="1">
          <mxGeometry x="265.83333333333337" y="44.11764705882353" width="70" height="30" as="geometry" />
        </mxCell>
        <mxCell id="D4Swq6HpyOlGJ2e64USP-58" value="`I`" style="text;html=1;align=center;verticalAlign=middle;resizable=0;points=[];autosize=1;strokeColor=none;fillColor=none;" parent="D4Swq6HpyOlGJ2e64USP-69" vertex="1">
          <mxGeometry x="147.58333333333337" y="127.94117647058825" width="30" height="30" as="geometry" />
        </mxCell>
        <mxCell id="D4Swq6HpyOlGJ2e64USP-59" value="`O`" style="text;html=1;align=center;verticalAlign=middle;resizable=0;points=[];autosize=1;strokeColor=none;fillColor=none;" parent="D4Swq6HpyOlGJ2e64USP-69" vertex="1">
          <mxGeometry x="73.33333333333334" y="189.7058823529412" width="40" height="30" as="geometry" />
        </mxCell>
        <mxCell id="D4Swq6HpyOlGJ2e64USP-61" value="" style="endArrow=none;html=1;rounded=0;fillColor=#0050ef;strokeColor=#001DBC;strokeWidth=2;" parent="D4Swq6HpyOlGJ2e64USP-69" edge="1">
          <mxGeometry width="50" height="50" relative="1" as="geometry">
            <mxPoint x="100.83333333333334" y="141.1764705882353" as="sourcePoint" />
            <mxPoint x="155.83333333333334" y="167.64705882352942" as="targetPoint" />
          </mxGeometry>
        </mxCell>
        <mxCell id="D4Swq6HpyOlGJ2e64USP-63" value="" style="endArrow=none;html=1;rounded=0;fillColor=#0050ef;strokeColor=#001DBC;strokeWidth=2;" parent="D4Swq6HpyOlGJ2e64USP-69" edge="1">
          <mxGeometry width="50" height="50" relative="1" as="geometry">
            <mxPoint x="155.83333333333334" y="167.64705882352942" as="sourcePoint" />
            <mxPoint x="146.66666666666669" y="211.76470588235296" as="targetPoint" />
          </mxGeometry>
        </mxCell>
        <mxCell id="D4Swq6HpyOlGJ2e64USP-66" style="edgeStyle=orthogonalEdgeStyle;rounded=0;orthogonalLoop=1;jettySize=auto;html=1;exitX=1;exitY=0.5;exitDx=0;exitDy=0;strokeColor=light-dark(#001DBC,#B2CBFF);" parent="D4Swq6HpyOlGJ2e64USP-69" source="D4Swq6HpyOlGJ2e64USP-64" edge="1">
          <mxGeometry relative="1" as="geometry">
            <mxPoint x="110.00000000000001" y="156.11561866125763" as="targetPoint" />
          </mxGeometry>
        </mxCell>
        <mxCell id="D4Swq6HpyOlGJ2e64USP-64" value="Plan des &quot;meilleurs&quot;" style="text;html=1;align=center;verticalAlign=middle;whiteSpace=wrap;rounded=0;fontColor=light-dark(#001DBC,#B2CBFF);" parent="D4Swq6HpyOlGJ2e64USP-69" vertex="1">
          <mxGeometry x="9.166666666666668" y="142.94117647058823" width="64.16666666666669" height="26.47058823529412" as="geometry" />
        </mxCell>
        <mxCell id="D4Swq6HpyOlGJ2e64USP-51" value="" style="endArrow=none;dashed=1;html=1;dashPattern=1 3;strokeWidth=2;rounded=0;strokeColor=light-dark(#168D00,#168D00);" parent="D4Swq6HpyOlGJ2e64USP-69" edge="1">
          <mxGeometry width="50" height="50" relative="1" as="geometry">
            <mxPoint x="100.83333333333334" y="194.11764705882354" as="sourcePoint" />
            <mxPoint x="280.50000000000006" y="2.7479053144695342" as="targetPoint" />
          </mxGeometry>
        </mxCell>
        <mxCell id="D4Swq6HpyOlGJ2e64USP-50" value="" style="endArrow=none;html=1;rounded=0;strokeColor=light-dark(#FF0B2A,#FF2871);strokeWidth=2;" parent="D4Swq6HpyOlGJ2e64USP-69" edge="1">
          <mxGeometry width="50" height="50" relative="1" as="geometry">
            <mxPoint x="191.58333333333334" y="228.5294117647059" as="sourcePoint" />
            <mxPoint x="100.83333333333334" y="110.29411764705883" as="targetPoint" />
          </mxGeometry>
        </mxCell>
        <mxCell id="D4Swq6HpyOlGJ2e64USP-9" value="" style="endArrow=none;html=1;rounded=0;fillColor=#0050ef;strokeColor=#001DBC;strokeWidth=2;" parent="D4Swq6HpyOlGJ2e64USP-69" edge="1">
          <mxGeometry width="50" height="50" relative="1" as="geometry">
            <mxPoint x="100.83333333333334" y="17.647058823529413" as="sourcePoint" />
            <mxPoint x="284.16666666666674" y="264.70588235294116" as="targetPoint" />
          </mxGeometry>
        </mxCell>
        <mxCell id="D4Swq6HpyOlGJ2e64USP-52" value="" style="shape=ellipse;html=1;sketch=0;strokeColor=none;fillColor=light-dark(#FF00F9,#FF00F9);" parent="D4Swq6HpyOlGJ2e64USP-69" vertex="1">
          <mxGeometry x="147.58333333333337" y="134.11764705882356" width="9.166666666666668" height="8.823529411764707" as="geometry" />
        </mxCell>
        <mxCell id="D4Swq6HpyOlGJ2e64USP-8" value="" style="shape=ellipse;fillColor=light-dark(#CABD00,#CABD00);strokeColor=none;html=1;sketch=0;fontColor=#ffffff;" parent="D4Swq6HpyOlGJ2e64USP-69" vertex="1">
          <mxGeometry x="96.25000000000001" y="189.7058823529413" width="9.166666666666668" height="8.823529411764707" as="geometry" />
        </mxCell>
        <mxCell id="D4Swq6HpyOlGJ2e64USP-60" value="" style="endArrow=none;html=1;rounded=0;fillColor=#0050ef;strokeColor=#001DBC;strokeWidth=2;" parent="D4Swq6HpyOlGJ2e64USP-69" edge="1">
          <mxGeometry width="50" height="50" relative="1" as="geometry">
            <mxPoint x="100.83333333333334" y="141.1764705882353" as="sourcePoint" />
            <mxPoint x="146.66666666666669" y="211.76470588235296" as="targetPoint" />
          </mxGeometry>
        </mxCell>
        <mxCell id="D4Swq6HpyOlGJ2e64USP-67" value="" style="endArrow=classic;startArrow=classic;html=1;rounded=0;" parent="D4Swq6HpyOlGJ2e64USP-69" edge="1">
          <mxGeometry width="50" height="50" relative="1" as="geometry">
            <mxPoint x="99.91666666666667" y="203.8235294117647" as="sourcePoint" />
            <mxPoint x="143.9166666666667" y="219.70588235294116" as="targetPoint" />
          </mxGeometry>
        </mxCell>
        <mxCell id="D4Swq6HpyOlGJ2e64USP-68" value="\(\beta\)" style="text;html=1;align=center;verticalAlign=middle;resizable=0;points=[];autosize=1;strokeColor=none;fillColor=none;" parent="D4Swq6HpyOlGJ2e64USP-69" vertex="1">
          <mxGeometry x="92.58333333333334" y="207.3529411764706" width="60" height="30" as="geometry" />
        </mxCell>
        <mxCell id="D4Swq6HpyOlGJ2e64USP-70" value="" style="endArrow=none;html=1;rounded=0;strokeWidth=2;" parent="1" edge="1">
          <mxGeometry width="50" height="50" relative="1" as="geometry">
            <mxPoint x="440" y="450" as="sourcePoint" />
            <mxPoint x="440" y="80" as="targetPoint" />
          </mxGeometry>
        </mxCell>
        <mxCell id="D4Swq6HpyOlGJ2e64USP-71" value="&lt;font style=&quot;font-size: 20px;&quot;&gt;&lt;u&gt;Notations&lt;/u&gt;&lt;/font&gt;" style="text;html=1;align=left;verticalAlign=middle;whiteSpace=wrap;rounded=1;" parent="1" vertex="1">
          <mxGeometry x="460" y="90" width="70" height="30" as="geometry" />
        </mxCell>
        <mxCell id="D4Swq6HpyOlGJ2e64USP-80" value="&lt;span style=&quot;font-size: 17px;&quot;&gt;Plan `T` de vecteur normal \(\vec{n}\begin{pmatrix}a\\b\\c\end{pmatrix}\)&lt;/span&gt;&lt;br&gt;&lt;br&gt;&lt;span style=&quot;font-size: 17px;&quot;&gt;Droite `d` de vecteur directeur \(\vec{u}\begin{pmatrix}\lambda_A\\\lambda_B\\\lambda_C\end{pmatrix}\)&lt;/span&gt;&lt;br&gt;&lt;br&gt;&lt;span style=&quot;font-size: 17px;&quot;&gt;\(\lambda_A\), \(\lambda_B\) et \(\lambda_C\) étant les pondérations de chacun des classements avec :&lt;/span&gt;&lt;div&gt;&lt;span style=&quot;font-size: 17px;&quot;&gt;$$\lambda_A, \lambda_B, \lambda_C \in [0;1]$$&lt;/span&gt;&lt;/div&gt;&lt;div&gt;&lt;span style=&quot;font-size: 17px;&quot;&gt;$$\lambda_A+\lambda_B+\lambda_C=1$$&lt;/span&gt;&lt;span style=&quot;font-size: 17px;&quot;&gt;&lt;/span&gt;&lt;/div&gt;" style="text;html=1;align=left;verticalAlign=middle;whiteSpace=wrap;rounded=0;direction=south;" parent="1" vertex="1">
          <mxGeometry x="480" y="145" width="320" height="275" as="geometry" />
        </mxCell>
        <mxCell id="--ByVu5LHuy-HlIcs-8B-1" value="" style="endArrow=none;html=1;rounded=1;strokeWidth=2;" edge="1" parent="1">
          <mxGeometry width="50" height="50" relative="1" as="geometry">
            <mxPoint x="4" y="450" as="sourcePoint" />
            <mxPoint x="824" y="450" as="targetPoint" />
          </mxGeometry>
        </mxCell>
        <mxCell id="--ByVu5LHuy-HlIcs-8B-3" value="&lt;span style=&quot;font-size: 20px;&quot;&gt;&lt;u&gt;Expression de la distance `f`&lt;/u&gt;&lt;/span&gt;" style="text;html=1;align=left;verticalAlign=middle;whiteSpace=wrap;rounded=1;" vertex="1" parent="1">
          <mxGeometry x="20" y="470" width="270" height="30" as="geometry" />
        </mxCell>
        <mxCell id="--ByVu5LHuy-HlIcs-8B-4" value="&lt;u style=&quot;&quot;&gt;&lt;font style=&quot;font-size: 19px;&quot;&gt;Equation du plan `T`&lt;/font&gt;&lt;/u&gt;" style="text;html=1;align=left;verticalAlign=middle;whiteSpace=wrap;rounded=1;" vertex="1" parent="1">
          <mxGeometry x="40" y="510" width="270" height="30" as="geometry" />
        </mxCell>
        <mxCell id="--ByVu5LHuy-HlIcs-8B-5" value="$$\begin{cases}\overrightarrow{AB}\begin{pmatrix}-x_{A}\\y_{B}\\z_{C}\end{pmatrix}\\\overrightarrow{AC}\begin{pmatrix}-x_{A}\\0\\z_{C}\end{pmatrix}\end{cases}\implies\vec{n}\begin{pmatrix}1\\ \frac{x_{A}}{y_{B}} \\ \frac{x_{A}}{z_{C}} \end{pmatrix}\implies T : x+\frac{x_A}{y_B}y+\frac{x_A}{z_C}z+d=0\quad\text{or}\quad A(x_A;0;0)\in T\implies T: x+\frac{x_A}{y_B}y+\frac{x_A}{z_C}z-x_A$$&amp;nbsp;" style="text;html=1;align=center;verticalAlign=middle;whiteSpace=wrap;rounded=0;" vertex="1" parent="1">
          <mxGeometry x="30" y="540" width="790" height="140" as="geometry" />
        </mxCell>
        <mxCell id="--ByVu5LHuy-HlIcs-8B-6" value="&lt;u style=&quot;&quot;&gt;&lt;font style=&quot;font-size: 19px;&quot;&gt;Equations paramétriques de `d` :&lt;/font&gt;&lt;/u&gt;" style="text;html=1;align=left;verticalAlign=middle;whiteSpace=wrap;rounded=1;" vertex="1" parent="1">
          <mxGeometry x="40" y="670" width="280" height="30" as="geometry" />
        </mxCell>
        <mxCell id="--ByVu5LHuy-HlIcs-8B-7" value="$$\vec{u}\begin{pmatrix}\lambda_A\\\lambda_B\\\lambda_C\end{pmatrix}\in d \implies d: \begin{cases}x=\lambda_A\cdot t\\y=\lambda_B\cdot t\\z=\lambda_C\cdot t\end{cases}\quad , t \in \mathbb{R}$$&amp;nbsp;" style="text;html=1;align=center;verticalAlign=middle;whiteSpace=wrap;rounded=0;" vertex="1" parent="1">
          <mxGeometry x="350" y="650" width="290" height="80" as="geometry" />
        </mxCell>
        <mxCell id="--ByVu5LHuy-HlIcs-8B-8" value="&lt;u style=&quot;&quot;&gt;&lt;font style=&quot;font-size: 19px;&quot;&gt;Intersection de `T` et `d` :&lt;/font&gt;&lt;/u&gt;" style="text;html=1;align=left;verticalAlign=middle;whiteSpace=wrap;rounded=1;" vertex="1" parent="1">
          <mxGeometry x="40" y="730" width="270" height="30" as="geometry" />
        </mxCell>
        <mxCell id="--ByVu5LHuy-HlIcs-8B-9" value="$$\begin{cases}x=\lambda_{A}\cdot t \\y=\lambda_{B}\cdot t \\z=\lambda_{C}\cdot t \\x+\frac{x_{A}}{y_{B}}y+\frac{x_{A}}{z_{C}}z-x_{A}=0\end{cases}\implies \lambda_{A}t+\frac{x_{A}}{y_{B}}\lambda_{B}t+\frac{x_{A}}{z_{C}}\lambda_{C}t-x_{A}=0 \implies t=\frac{x_{A}}{\lambda_{A}+\frac{x_{A}}{y_{B}}\lambda_{B}+\frac{x_{A}}{z_{C}}\lambda_{C}}$$" style="text;html=1;align=center;verticalAlign=middle;whiteSpace=wrap;rounded=0;" vertex="1" parent="1">
          <mxGeometry x="30" y="760" width="790" height="90" as="geometry" />
        </mxCell>
        <mxCell id="--ByVu5LHuy-HlIcs-8B-11" value="&lt;div&gt;&lt;br&gt;&lt;/div&gt;&lt;div&gt;$$x_{I}=\frac{x_{A}}{\lambda_{A}+\frac{x_{A}}{y_{B}}\lambda_{B}+\frac{x_{A}}{z_{C}}\lambda_{C}}\cdot\lambda_{A} \quad\text{et}\quad y_{I}=\frac{x_{A}}{\lambda_{A}+\frac{x_{A}}{y_{B}}\lambda_{B}+\frac{x_{A}}{z_{C}}\lambda_{C}}\cdot\lambda_{B} \quad\text{et}\quad z_{I}=\frac{x_{A}}{\lambda_{A}+\frac{x_{A}}{y_{B}}\lambda_{B}+\frac{x_{A}}{z_{C}}\lambda_{C}}\cdot\lambda_{C}$$&lt;/div&gt;" style="text;html=1;align=center;verticalAlign=middle;whiteSpace=wrap;rounded=0;" vertex="1" parent="1">
          <mxGeometry x="25" y="830" width="790" height="70" as="geometry" />
        </mxCell>
        <mxCell id="--ByVu5LHuy-HlIcs-8B-12" value="&lt;u style=&quot;&quot;&gt;&lt;font style=&quot;font-size: 19px;&quot;&gt;Distance \(f=OI\)&lt;/font&gt;&lt;/u&gt;" style="text;html=1;align=left;verticalAlign=middle;whiteSpace=wrap;rounded=1;" vertex="1" parent="1">
          <mxGeometry x="40" y="900" width="270" height="30" as="geometry" />
        </mxCell>
        <mxCell id="--ByVu5LHuy-HlIcs-8B-13" value="$$f=\sqrt{ x_{I}^2+y_{I}^2+z_{I}^2 }=t\cdot\sqrt{ \lambda_{A}^2+\lambda_{B}^2+\lambda_{C}^2 }=\frac{x_{A}\cdot\sqrt{ \lambda_{A}^2+\lambda_{B}^2+\lambda_{C}^2}}{\lambda_{A}+\frac{x_{A}}{y_{B}}\lambda_{B}+\frac{x_{A}}{z_{C}}\lambda_{C}}$$" style="text;html=1;align=center;verticalAlign=middle;whiteSpace=wrap;rounded=0;" vertex="1" parent="1">
          <mxGeometry y="920" width="790" height="90" as="geometry" />
        </mxCell>
        <mxCell id="--ByVu5LHuy-HlIcs-8B-14" value="" style="endArrow=none;html=1;rounded=1;strokeWidth=2;" edge="1" parent="1">
          <mxGeometry width="50" height="50" relative="1" as="geometry">
            <mxPoint x="4" y="1000" as="sourcePoint" />
            <mxPoint x="824" y="1000" as="targetPoint" />
          </mxGeometry>
        </mxCell>
        <mxCell id="--ByVu5LHuy-HlIcs-8B-15" value="&lt;span style=&quot;font-size: 20px;&quot;&gt;&lt;u&gt;Exemple numérique&lt;/u&gt;&lt;/span&gt;" style="text;html=1;align=left;verticalAlign=middle;whiteSpace=wrap;rounded=1;" vertex="1" parent="1">
          <mxGeometry x="40" y="1010" width="270" height="30" as="geometry" />
        </mxCell>
        <mxCell id="--ByVu5LHuy-HlIcs-8B-62" value="" style="shape=table;startSize=0;container=1;collapsible=0;childLayout=tableLayout;" vertex="1" parent="1">
          <mxGeometry x="50" y="1050" width="240" height="103" as="geometry" />
        </mxCell>
        <mxCell id="--ByVu5LHuy-HlIcs-8B-63" value="" style="shape=tableRow;horizontal=0;startSize=0;swimlaneHead=0;swimlaneBody=0;strokeColor=inherit;top=0;left=0;bottom=0;right=0;collapsible=0;dropTarget=0;fillColor=none;points=[[0,0.5],[1,0.5]];portConstraint=eastwest;" vertex="1" parent="--ByVu5LHuy-HlIcs-8B-62">
          <mxGeometry width="240" height="20" as="geometry" />
        </mxCell>
        <mxCell id="--ByVu5LHuy-HlIcs-8B-64" value="`x_A`" style="shape=partialRectangle;html=1;whiteSpace=wrap;connectable=0;strokeColor=inherit;overflow=hidden;fillColor=none;top=0;left=0;bottom=0;right=0;pointerEvents=1;" vertex="1" parent="--ByVu5LHuy-HlIcs-8B-63">
          <mxGeometry width="60" height="20" as="geometry">
            <mxRectangle width="60" height="20" as="alternateBounds" />
          </mxGeometry>
        </mxCell>
        <mxCell id="--ByVu5LHuy-HlIcs-8B-65" value="`y_B`" style="shape=partialRectangle;html=1;whiteSpace=wrap;connectable=0;strokeColor=inherit;overflow=hidden;fillColor=none;top=0;left=0;bottom=0;right=0;pointerEvents=1;" vertex="1" parent="--ByVu5LHuy-HlIcs-8B-63">
          <mxGeometry x="60" width="60" height="20" as="geometry">
            <mxRectangle width="60" height="20" as="alternateBounds" />
          </mxGeometry>
        </mxCell>
        <mxCell id="--ByVu5LHuy-HlIcs-8B-66" value="`z_C`" style="shape=partialRectangle;html=1;whiteSpace=wrap;connectable=0;strokeColor=inherit;overflow=hidden;fillColor=none;top=0;left=0;bottom=0;right=0;pointerEvents=1;" vertex="1" parent="--ByVu5LHuy-HlIcs-8B-63">
          <mxGeometry x="120" width="60" height="20" as="geometry">
            <mxRectangle width="60" height="20" as="alternateBounds" />
          </mxGeometry>
        </mxCell>
        <mxCell id="--ByVu5LHuy-HlIcs-8B-67" value="`f`" style="shape=partialRectangle;html=1;whiteSpace=wrap;connectable=0;strokeColor=inherit;overflow=hidden;fillColor=none;top=0;left=0;bottom=0;right=0;pointerEvents=1;" vertex="1" parent="--ByVu5LHuy-HlIcs-8B-63">
          <mxGeometry x="180" width="60" height="20" as="geometry">
            <mxRectangle width="60" height="20" as="alternateBounds" />
          </mxGeometry>
        </mxCell>
        <mxCell id="--ByVu5LHuy-HlIcs-8B-68" value="" style="shape=tableRow;horizontal=0;startSize=0;swimlaneHead=0;swimlaneBody=0;strokeColor=inherit;top=0;left=0;bottom=0;right=0;collapsible=0;dropTarget=0;fillColor=none;points=[[0,0.5],[1,0.5]];portConstraint=eastwest;" vertex="1" parent="--ByVu5LHuy-HlIcs-8B-62">
          <mxGeometry y="20" width="240" height="16" as="geometry" />
        </mxCell>
        <mxCell id="--ByVu5LHuy-HlIcs-8B-69" value="`1`" style="shape=partialRectangle;html=1;whiteSpace=wrap;connectable=0;strokeColor=inherit;overflow=hidden;fillColor=none;top=0;left=0;bottom=0;right=0;pointerEvents=1;" vertex="1" parent="--ByVu5LHuy-HlIcs-8B-68">
          <mxGeometry width="60" height="16" as="geometry">
            <mxRectangle width="60" height="16" as="alternateBounds" />
          </mxGeometry>
        </mxCell>
        <mxCell id="--ByVu5LHuy-HlIcs-8B-70" value="`2`" style="shape=partialRectangle;html=1;whiteSpace=wrap;connectable=0;strokeColor=inherit;overflow=hidden;fillColor=none;top=0;left=0;bottom=0;right=0;pointerEvents=1;" vertex="1" parent="--ByVu5LHuy-HlIcs-8B-68">
          <mxGeometry x="60" width="60" height="16" as="geometry">
            <mxRectangle width="60" height="16" as="alternateBounds" />
          </mxGeometry>
        </mxCell>
        <mxCell id="--ByVu5LHuy-HlIcs-8B-71" value="`1`" style="shape=partialRectangle;html=1;whiteSpace=wrap;connectable=0;strokeColor=inherit;overflow=hidden;fillColor=none;top=0;left=0;bottom=0;right=0;pointerEvents=1;" vertex="1" parent="--ByVu5LHuy-HlIcs-8B-68">
          <mxGeometry x="120" width="60" height="16" as="geometry">
            <mxRectangle width="60" height="16" as="alternateBounds" />
          </mxGeometry>
        </mxCell>
        <mxCell id="--ByVu5LHuy-HlIcs-8B-72" value="`0.69`" style="shape=partialRectangle;html=1;whiteSpace=wrap;connectable=0;strokeColor=inherit;overflow=hidden;fillColor=none;top=0;left=0;bottom=0;right=0;pointerEvents=1;" vertex="1" parent="--ByVu5LHuy-HlIcs-8B-68">
          <mxGeometry x="180" width="60" height="16" as="geometry">
            <mxRectangle width="60" height="16" as="alternateBounds" />
          </mxGeometry>
        </mxCell>
        <mxCell id="--ByVu5LHuy-HlIcs-8B-73" value="" style="shape=tableRow;horizontal=0;startSize=0;swimlaneHead=0;swimlaneBody=0;strokeColor=inherit;top=0;left=0;bottom=0;right=0;collapsible=0;dropTarget=0;fillColor=none;points=[[0,0.5],[1,0.5]];portConstraint=eastwest;" vertex="1" parent="--ByVu5LHuy-HlIcs-8B-62">
          <mxGeometry y="36" width="240" height="17" as="geometry" />
        </mxCell>
        <mxCell id="--ByVu5LHuy-HlIcs-8B-74" value="`3`" style="shape=partialRectangle;html=1;whiteSpace=wrap;connectable=0;strokeColor=inherit;overflow=hidden;fillColor=none;top=0;left=0;bottom=0;right=0;pointerEvents=1;" vertex="1" parent="--ByVu5LHuy-HlIcs-8B-73">
          <mxGeometry width="60" height="17" as="geometry">
            <mxRectangle width="60" height="17" as="alternateBounds" />
          </mxGeometry>
        </mxCell>
        <mxCell id="--ByVu5LHuy-HlIcs-8B-75" value="`1`" style="shape=partialRectangle;html=1;whiteSpace=wrap;connectable=0;strokeColor=inherit;overflow=hidden;fillColor=none;top=0;left=0;bottom=0;right=0;pointerEvents=1;" vertex="1" parent="--ByVu5LHuy-HlIcs-8B-73">
          <mxGeometry x="60" width="60" height="17" as="geometry">
            <mxRectangle width="60" height="17" as="alternateBounds" />
          </mxGeometry>
        </mxCell>
        <mxCell id="--ByVu5LHuy-HlIcs-8B-76" value="`3`" style="shape=partialRectangle;html=1;whiteSpace=wrap;connectable=0;strokeColor=inherit;overflow=hidden;fillColor=none;top=0;left=0;bottom=0;right=0;pointerEvents=1;" vertex="1" parent="--ByVu5LHuy-HlIcs-8B-73">
          <mxGeometry x="120" width="60" height="17" as="geometry">
            <mxRectangle width="60" height="17" as="alternateBounds" />
          </mxGeometry>
        </mxCell>
        <mxCell id="--ByVu5LHuy-HlIcs-8B-77" value="`1.09`" style="shape=partialRectangle;html=1;whiteSpace=wrap;connectable=0;strokeColor=inherit;overflow=hidden;fillColor=none;top=0;left=0;bottom=0;right=0;pointerEvents=1;" vertex="1" parent="--ByVu5LHuy-HlIcs-8B-73">
          <mxGeometry x="180" width="60" height="17" as="geometry">
            <mxRectangle width="60" height="17" as="alternateBounds" />
          </mxGeometry>
        </mxCell>
        <mxCell id="--ByVu5LHuy-HlIcs-8B-78" value="" style="shape=tableRow;horizontal=0;startSize=0;swimlaneHead=0;swimlaneBody=0;strokeColor=inherit;top=0;left=0;bottom=0;right=0;collapsible=0;dropTarget=0;fillColor=none;points=[[0,0.5],[1,0.5]];portConstraint=eastwest;" vertex="1" parent="--ByVu5LHuy-HlIcs-8B-62">
          <mxGeometry y="53" width="240" height="17" as="geometry" />
        </mxCell>
        <mxCell id="--ByVu5LHuy-HlIcs-8B-79" value="`2`" style="shape=partialRectangle;html=1;whiteSpace=wrap;connectable=0;strokeColor=inherit;overflow=hidden;fillColor=none;top=0;left=0;bottom=0;right=0;pointerEvents=1;" vertex="1" parent="--ByVu5LHuy-HlIcs-8B-78">
          <mxGeometry width="60" height="17" as="geometry">
            <mxRectangle width="60" height="17" as="alternateBounds" />
          </mxGeometry>
        </mxCell>
        <mxCell id="--ByVu5LHuy-HlIcs-8B-80" value="`3`" style="shape=partialRectangle;html=1;whiteSpace=wrap;connectable=0;strokeColor=inherit;overflow=hidden;fillColor=none;top=0;left=0;bottom=0;right=0;pointerEvents=1;" vertex="1" parent="--ByVu5LHuy-HlIcs-8B-78">
          <mxGeometry x="60" width="60" height="17" as="geometry">
            <mxRectangle width="60" height="17" as="alternateBounds" />
          </mxGeometry>
        </mxCell>
        <mxCell id="--ByVu5LHuy-HlIcs-8B-81" value="`5`" style="shape=partialRectangle;html=1;whiteSpace=wrap;connectable=0;strokeColor=inherit;overflow=hidden;fillColor=none;top=0;left=0;bottom=0;right=0;pointerEvents=1;" vertex="1" parent="--ByVu5LHuy-HlIcs-8B-78">
          <mxGeometry x="120" width="60" height="17" as="geometry">
            <mxRectangle width="60" height="17" as="alternateBounds" />
          </mxGeometry>
        </mxCell>
        <mxCell id="--ByVu5LHuy-HlIcs-8B-82" value="`1.62`" style="shape=partialRectangle;html=1;whiteSpace=wrap;connectable=0;strokeColor=inherit;overflow=hidden;fillColor=none;top=0;left=0;bottom=0;right=0;pointerEvents=1;" vertex="1" parent="--ByVu5LHuy-HlIcs-8B-78">
          <mxGeometry x="180" width="60" height="17" as="geometry">
            <mxRectangle width="60" height="17" as="alternateBounds" />
          </mxGeometry>
        </mxCell>
        <mxCell id="--ByVu5LHuy-HlIcs-8B-83" value="" style="shape=tableRow;horizontal=0;startSize=0;swimlaneHead=0;swimlaneBody=0;strokeColor=inherit;top=0;left=0;bottom=0;right=0;collapsible=0;dropTarget=0;fillColor=none;points=[[0,0.5],[1,0.5]];portConstraint=eastwest;" vertex="1" parent="--ByVu5LHuy-HlIcs-8B-62">
          <mxGeometry y="70" width="240" height="16" as="geometry" />
        </mxCell>
        <mxCell id="--ByVu5LHuy-HlIcs-8B-84" value="`4`" style="shape=partialRectangle;html=1;whiteSpace=wrap;connectable=0;strokeColor=inherit;overflow=hidden;fillColor=none;top=0;left=0;bottom=0;right=0;pointerEvents=1;" vertex="1" parent="--ByVu5LHuy-HlIcs-8B-83">
          <mxGeometry width="60" height="16" as="geometry">
            <mxRectangle width="60" height="16" as="alternateBounds" />
          </mxGeometry>
        </mxCell>
        <mxCell id="--ByVu5LHuy-HlIcs-8B-85" value="`4`" style="shape=partialRectangle;html=1;whiteSpace=wrap;connectable=0;strokeColor=inherit;overflow=hidden;fillColor=none;top=0;left=0;bottom=0;right=0;pointerEvents=1;" vertex="1" parent="--ByVu5LHuy-HlIcs-8B-83">
          <mxGeometry x="60" width="60" height="16" as="geometry">
            <mxRectangle width="60" height="16" as="alternateBounds" />
          </mxGeometry>
        </mxCell>
        <mxCell id="--ByVu5LHuy-HlIcs-8B-86" value="`2`" style="shape=partialRectangle;html=1;whiteSpace=wrap;connectable=0;strokeColor=inherit;overflow=hidden;fillColor=none;top=0;left=0;bottom=0;right=0;pointerEvents=1;" vertex="1" parent="--ByVu5LHuy-HlIcs-8B-83">
          <mxGeometry x="120" width="60" height="16" as="geometry">
            <mxRectangle width="60" height="16" as="alternateBounds" />
          </mxGeometry>
        </mxCell>
        <mxCell id="--ByVu5LHuy-HlIcs-8B-87" value="`1.79`" style="shape=partialRectangle;html=1;whiteSpace=wrap;connectable=0;strokeColor=inherit;overflow=hidden;fillColor=none;top=0;left=0;bottom=0;right=0;pointerEvents=1;" vertex="1" parent="--ByVu5LHuy-HlIcs-8B-83">
          <mxGeometry x="180" width="60" height="16" as="geometry">
            <mxRectangle width="60" height="16" as="alternateBounds" />
          </mxGeometry>
        </mxCell>
        <mxCell id="--ByVu5LHuy-HlIcs-8B-88" value="" style="shape=tableRow;horizontal=0;startSize=0;swimlaneHead=0;swimlaneBody=0;strokeColor=inherit;top=0;left=0;bottom=0;right=0;collapsible=0;dropTarget=0;fillColor=none;points=[[0,0.5],[1,0.5]];portConstraint=eastwest;" vertex="1" parent="--ByVu5LHuy-HlIcs-8B-62">
          <mxGeometry y="86" width="240" height="17" as="geometry" />
        </mxCell>
        <mxCell id="--ByVu5LHuy-HlIcs-8B-89" value="`5`" style="shape=partialRectangle;html=1;whiteSpace=wrap;connectable=0;strokeColor=inherit;overflow=hidden;fillColor=none;top=0;left=0;bottom=0;right=0;pointerEvents=1;" vertex="1" parent="--ByVu5LHuy-HlIcs-8B-88">
          <mxGeometry width="60" height="17" as="geometry">
            <mxRectangle width="60" height="17" as="alternateBounds" />
          </mxGeometry>
        </mxCell>
        <mxCell id="--ByVu5LHuy-HlIcs-8B-90" value="`5`" style="shape=partialRectangle;html=1;whiteSpace=wrap;connectable=0;strokeColor=inherit;overflow=hidden;fillColor=none;top=0;left=0;bottom=0;right=0;pointerEvents=1;" vertex="1" parent="--ByVu5LHuy-HlIcs-8B-88">
          <mxGeometry x="60" width="60" height="17" as="geometry">
            <mxRectangle width="60" height="17" as="alternateBounds" />
          </mxGeometry>
        </mxCell>
        <mxCell id="--ByVu5LHuy-HlIcs-8B-91" value="`4`" style="shape=partialRectangle;html=1;whiteSpace=wrap;connectable=0;strokeColor=inherit;overflow=hidden;fillColor=none;top=0;left=0;bottom=0;right=0;pointerEvents=1;" vertex="1" parent="--ByVu5LHuy-HlIcs-8B-88">
          <mxGeometry x="120" width="60" height="17" as="geometry">
            <mxRectangle width="60" height="17" as="alternateBounds" />
          </mxGeometry>
        </mxCell>
        <mxCell id="--ByVu5LHuy-HlIcs-8B-92" value="`2.71`" style="shape=partialRectangle;html=1;whiteSpace=wrap;connectable=0;strokeColor=inherit;overflow=hidden;fillColor=none;top=0;left=0;bottom=0;right=0;pointerEvents=1;" vertex="1" parent="--ByVu5LHuy-HlIcs-8B-88">
          <mxGeometry x="180" width="60" height="17" as="geometry">
            <mxRectangle width="60" height="17" as="alternateBounds" />
          </mxGeometry>
        </mxCell>
        <mxCell id="--ByVu5LHuy-HlIcs-8B-94" value="&lt;div style=&quot;line-height: 80%;&quot;&gt;Avec :&lt;br&gt;&lt;ul&gt;&lt;li&gt;\(\lambda_A=0.4\)&lt;/li&gt;&lt;li&gt;\(\lambda_B=0.3\)&lt;/li&gt;&lt;li&gt;\(\lambda_C=0.3\)&lt;/li&gt;&lt;/ul&gt;&lt;/div&gt;" style="text;html=1;align=left;verticalAlign=middle;whiteSpace=wrap;rounded=0;" vertex="1" parent="1">
          <mxGeometry x="310" y="1063" width="140" height="77" as="geometry" />
        </mxCell>
        <mxCell id="--ByVu5LHuy-HlIcs-8B-95" value="" style="endArrow=none;html=1;rounded=0;strokeWidth=2;" edge="1" parent="1">
          <mxGeometry width="50" height="50" relative="1" as="geometry">
            <mxPoint x="440" y="1160" as="sourcePoint" />
            <mxPoint x="440" y="1000" as="targetPoint" />
          </mxGeometry>
        </mxCell>
        <mxCell id="--ByVu5LHuy-HlIcs-8B-96" value="&lt;span style=&quot;font-size: 20px;&quot;&gt;&lt;u&gt;Étude statistique&lt;/u&gt;&lt;/span&gt;" style="text;html=1;align=left;verticalAlign=middle;whiteSpace=wrap;rounded=1;" vertex="1" parent="1">
          <mxGeometry x="450" y="1010" width="150" height="30" as="geometry" />
        </mxCell>
        <mxCell id="--ByVu5LHuy-HlIcs-8B-97" value="&lt;span style=&quot;font-size: 17px; text-align: left;&quot;&gt;\(\lambda_A\), \(\lambda_B\) et \(\lambda_C\) deviennent des variables&lt;/span&gt;" style="text;html=1;align=center;verticalAlign=middle;whiteSpace=wrap;rounded=0;" vertex="1" parent="1">
          <mxGeometry x="480" y="1073" width="120" height="67" as="geometry" />
        </mxCell>
        <mxCell id="--ByVu5LHuy-HlIcs-8B-98" value="" style="endArrow=none;html=1;rounded=0;fillColor=#0050ef;strokeColor=#001DBC;strokeWidth=2;" edge="1" parent="1">
          <mxGeometry width="50" height="50" relative="1" as="geometry">
            <mxPoint x="800" y="1150" as="sourcePoint" />
            <mxPoint x="660" y="1150" as="targetPoint" />
          </mxGeometry>
        </mxCell>
        <mxCell id="--ByVu5LHuy-HlIcs-8B-99" value="" style="endArrow=none;html=1;rounded=0;fillColor=#0050ef;strokeColor=#001DBC;strokeWidth=2;" edge="1" parent="1">
          <mxGeometry width="50" height="50" relative="1" as="geometry">
            <mxPoint x="800" y="1150" as="sourcePoint" />
            <mxPoint x="730" y="1020" as="targetPoint" />
          </mxGeometry>
        </mxCell>
        <mxCell id="--ByVu5LHuy-HlIcs-8B-100" value="" style="endArrow=none;html=1;rounded=0;fillColor=#0050ef;strokeColor=#001DBC;strokeWidth=2;" edge="1" parent="1">
          <mxGeometry width="50" height="50" relative="1" as="geometry">
            <mxPoint x="660" y="1150" as="sourcePoint" />
            <mxPoint x="730" y="1020" as="targetPoint" />
          </mxGeometry>
        </mxCell>
        <mxCell id="--ByVu5LHuy-HlIcs-8B-101" value="A" style="text;html=1;align=center;verticalAlign=middle;whiteSpace=wrap;rounded=0;fontColor=light-dark(#001DBC,#B2CBFF);" vertex="1" parent="1">
          <mxGeometry x="625" y="1140" width="30" height="24" as="geometry" />
        </mxCell>
        <mxCell id="--ByVu5LHuy-HlIcs-8B-103" value="B" style="text;html=1;align=center;verticalAlign=middle;whiteSpace=wrap;rounded=0;fontColor=light-dark(#001DBC,#B2CBFF);" vertex="1" parent="1">
          <mxGeometry x="790" y="1120" width="30" height="24" as="geometry" />
        </mxCell>
        <mxCell id="--ByVu5LHuy-HlIcs-8B-104" value="C" style="text;html=1;align=center;verticalAlign=middle;whiteSpace=wrap;rounded=0;fontColor=light-dark(#001DBC,#B2CBFF);" vertex="1" parent="1">
          <mxGeometry x="740" y="1010" width="30" height="24" as="geometry" />
        </mxCell>
        <mxCell id="--ByVu5LHuy-HlIcs-8B-106" value="" style="shape=trapezoid;perimeter=trapezoidPerimeter;whiteSpace=wrap;html=1;fixedSize=1;size=25.82356172449454;fillColor=light-dark(#0C1FA2,#0C1FA2);strokeColor=none;" vertex="1" parent="1">
          <mxGeometry x="662" y="1101" width="77" height="48" as="geometry" />
        </mxCell>
        <mxCell id="--ByVu5LHuy-HlIcs-8B-107" value="" style="shape=trapezoid;perimeter=trapezoidPerimeter;whiteSpace=wrap;html=1;fixedSize=1;size=15.209879557291742;fillColor=light-dark(#A22B47,#A22B47);strokeColor=none;" vertex="1" parent="1">
          <mxGeometry x="739" y="1120" width="59" height="29" as="geometry" />
        </mxCell>
        <mxCell id="--ByVu5LHuy-HlIcs-8B-108" value="" style="triangle;whiteSpace=wrap;html=1;rotation=90;strokeColor=none;fillColor=light-dark(#812A1F,#812A1F);" vertex="1" parent="1">
          <mxGeometry x="714.75" y="1091.75" width="48" height="66" as="geometry" />
        </mxCell>
        <mxCell id="--ByVu5LHuy-HlIcs-8B-110" value="" style="shape=trapezoid;perimeter=trapezoidPerimeter;whiteSpace=wrap;html=1;fixedSize=1;size=10.4117431640625;fillColor=light-dark(#467F0E,#467F0E);strokeColor=none;" vertex="1" parent="1">
          <mxGeometry x="758" y="1101" width="25" height="19" as="geometry" />
        </mxCell>
        <mxCell id="--ByVu5LHuy-HlIcs-8B-111" value="" style="shape=trapezoid;perimeter=trapezoidPerimeter;whiteSpace=wrap;html=1;fixedSize=1;size=20.599999321831547;fillColor=light-dark(#0F9FA2,#0F9FA2);strokeColor=none;" vertex="1" parent="1">
          <mxGeometry x="687" y="1064" width="63" height="37" as="geometry" />
        </mxCell>
        <mxCell id="--ByVu5LHuy-HlIcs-8B-112" value="" style="shape=parallelogram;perimeter=parallelogramPerimeter;whiteSpace=wrap;html=1;fixedSize=1;size=20;rotation=0;flipV=1;strokeColor=none;fillColor=light-dark(#FFF830,#FFF830);" vertex="1" parent="1">
          <mxGeometry x="730" y="1065" width="43" height="36" as="geometry" />
        </mxCell>
        <mxCell id="--ByVu5LHuy-HlIcs-8B-114" value="" style="shape=trapezoid;perimeter=trapezoidPerimeter;whiteSpace=wrap;html=1;fixedSize=1;size=43;fillColor=light-dark(#BA03A8,#BA03A8);strokeColor=none;" vertex="1" parent="1">
          <mxGeometry x="707" y="1020" width="46" height="45" as="geometry" />
        </mxCell>
      </root>
    </mxGraphModel>
  </diagram>
</mxfile>
